<?xml version="1.0" encoding="UTF-8" standalone="no"?>
<!DOCTYPE svg PUBLIC "-//W3C//DTD SVG 1.1//EN"
 "http://www.w3.org/Graphics/SVG/1.1/DTD/svg11.dtd">
<!-- Generated by graphviz version 8.1.0 (20230707.0739)
 -->
<!-- Pages: 1 -->
<svg width="123pt" height="260pt"
 viewBox="0.00 0.00 122.64 260.00" xmlns="http://www.w3.org/2000/svg" xmlns:xlink="http://www.w3.org/1999/xlink">
<g id="graph0" class="graph" transform="scale(1 1) rotate(0) translate(4 256)">
<polygon fill="white" stroke="none" points="-4,4 -4,-256 118.64,-256 118.64,4 -4,4"/>
<!-- 0 -->
<g id="node1" class="node">
<title>0</title>
<ellipse fill="none" stroke="black" cx="73" cy="-234" rx="27" ry="18"/>
<text text-anchor="middle" x="73" y="-228.57" font-family="Times New Roman,serif" font-size="14.00">&quot;A&quot;</text>
</g>
<!-- 1 -->
<g id="node2" class="node">
<title>1</title>
<ellipse fill="none" stroke="black" cx="73" cy="-162" rx="27" ry="18"/>
<text text-anchor="middle" x="73" y="-156.57" font-family="Times New Roman,serif" font-size="14.00">&quot;B&quot;</text>
</g>
<!-- 0&#45;&gt;1 -->
<g id="edge1" class="edge">
<title>0&#45;&gt;1</title>
<path fill="none" stroke="black" d="M73,-215.7C73,-208.24 73,-199.32 73,-190.97"/>
<polygon fill="black" stroke="black" points="76.5,-191.1 73,-181.1 69.5,-191.1 76.5,-191.1"/>
</g>
<!-- 2 -->
<g id="node3" class="node">
<title>2</title>
<ellipse fill="none" stroke="black" cx="27" cy="-90" rx="27" ry="18"/>
<text text-anchor="middle" x="27" y="-84.58" font-family="Times New Roman,serif" font-size="14.00">&quot;C&quot;</text>
</g>
<!-- 0&#45;&gt;2 -->
<g id="edge2" class="edge">
<title>0&#45;&gt;2</title>
<path fill="none" stroke="black" d="M59.79,-217.89C51.79,-207.85 42.17,-193.98 37,-180 29.79,-160.5 27.38,-137.09 26.73,-119.18"/>
<polygon fill="black" stroke="black" points="30.21,-119.22 26.52,-109.29 23.21,-119.36 30.21,-119.22"/>
</g>
<!-- 3 -->
<g id="node4" class="node">
<title>3</title>
<ellipse fill="none" stroke="black" cx="82" cy="-18" rx="27" ry="18"/>
<text text-anchor="middle" x="82" y="-12.57" font-family="Times New Roman,serif" font-size="14.00">&quot;D&quot;</text>
</g>
<!-- 0&#45;&gt;3 -->
<g id="edge3" class="edge">
<title>0&#45;&gt;3</title>
<path fill="none" stroke="black" d="M86.75,-218.07C94.96,-208.1 104.62,-194.25 109,-180 123.22,-133.76 106.47,-77.6 93.73,-45.31"/>
<polygon fill="black" stroke="black" points="96.66,-44.23 89.61,-36.32 90.19,-46.9 96.66,-44.23"/>
</g>
<!-- 1&#45;&gt;2 -->
<g id="edge4" class="edge">
<title>1&#45;&gt;2</title>
<path fill="none" stroke="black" d="M62.56,-145.12C56.86,-136.43 49.66,-125.49 43.24,-115.72"/>
<polygon fill="black" stroke="black" points="45.81,-114.26 37.4,-107.82 39.96,-118.1 45.81,-114.26"/>
</g>
<!-- 1&#45;&gt;3 -->
<g id="edge5" class="edge">
<title>1&#45;&gt;3</title>
<path fill="none" stroke="black" d="M74.1,-143.59C75.63,-119.5 78.4,-75.75 80.22,-47.03"/>
<polygon fill="black" stroke="black" points="83.78,-47.31 80.92,-37.11 76.79,-46.87 83.78,-47.31"/>
</g>
<!-- 2&#45;&gt;3 -->
<g id="edge6" class="edge">
<title>2&#45;&gt;3</title>
<path fill="none" stroke="black" d="M39.21,-73.46C46.26,-64.49 55.27,-53.02 63.21,-42.92"/>
<polygon fill="black" stroke="black" points="66.4,-45.52 69.83,-35.49 60.9,-41.19 66.4,-45.52"/>
</g>
</g>
</svg>
